<svg width="280" height="46" viewBox="0 0 280 46" fill="none" xmlns="http://www.w3.org/2000/svg">
    <g clip-path="url(#clip0_2380_4028)">
        <path d="M56.51 9.19267H66.6173L75.3588 27.8893L84.3552 9.19267H93.8251V36.789H86.4131V18.7333L78.0723 36.789H72.1354L63.8128 18.7333V36.789H56.51V9.19267Z" fill="black"/>
        <path d="M111.872 14.7596L107.046 26.0032H116.862L111.872 14.7596ZM119.394 31.6799H104.57L102.348 36.789H94.7173L106.901 9.19267H117.081L129.811 36.789H121.652L119.394 31.6799Z" fill="black"/>
        <path d="M141.867 27.8161L133.908 36.789H124.985L137.077 22.7803L125.167 9.19267H134.801L142.249 17.7627L149.661 9.19267H158.403L146.856 22.707L158.912 36.789H149.734L141.867 27.8161Z" fill="black"/>
        <path d="M167.399 9.19267H159.805V36.789H167.399V9.19267Z" fill="black"/>
        <path d="M196.446 22.6704C196.446 19.2643 194.789 15.0709 187.049 15.0709C179.382 15.0709 177.652 19.2643 177.652 22.6704V23.1831C177.652 26.5159 179.491 30.8925 187.049 30.8925C194.753 30.8925 196.446 26.5159 196.446 23.1831V22.6704ZM187.85 8.75319C200.689 8.75319 204.332 16.3161 204.332 22.3591V23.4761C204.332 29.4092 200.671 37.2285 187.85 37.2285H186.23C173.391 37.2285 169.748 29.4092 169.748 23.4761V22.3591C169.748 16.3527 173.409 8.75319 186.23 8.75319H187.85Z" fill="black"/>
        <path d="M206.699 9.19267H216.807L225.548 27.8893L234.544 9.19267H244.033V36.789H236.621V18.7333L228.28 36.789H222.343L214.002 18.7333V36.789H206.699V9.19267Z" fill="black"/>
        <path d="M262.08 14.7596L257.254 26.0032H267.07L262.08 14.7596ZM269.601 31.6799H254.777L252.555 36.789H244.925L257.09 9.19267H267.27L280 36.789H271.841L269.601 31.6799Z" fill="black"/>
        <path d="M2.33106 36.2213L13.0576 42.4475L18.1021 45.3774C18.8124 45.7986 19.6137 46 20.415 46C20.1782 31.8447 12.6933 18.8065 0.619187 11.5183C0.218537 12.2142 0 13.0016 0 13.8439V32.1561C0 33.8225 0.892358 35.379 2.33106 36.2213Z" fill="#9ED412"/>
        <path d="M20.4514 46C21.2527 46 22.054 45.7986 22.7643 45.3774L30.6498 40.7994L38.5353 36.2213C39.974 35.379 40.8664 33.8408 40.8664 32.1561V13.8439C40.8664 13.0016 40.6478 12.2142 40.2472 11.5183C28.173 18.8065 20.6882 31.8447 20.4514 46Z" fill="#0D59FF"/>
        <path d="M38.5353 9.77866L30.6498 5.20064L22.7643 0.622612C21.3256 -0.219744 19.5409 -0.219744 18.1022 0.622612L2.33111 9.77866C1.62087 10.1998 1.0381 10.7858 0.637451 11.4817C12.9483 18.3487 27.9181 18.3487 40.2472 11.4817C39.8283 10.7858 39.2456 10.1998 38.5353 9.77866Z" fill="#ED6B0D"/>
    </g>
    <defs>
        <clipPath id="clip0_2380_4028">
            <rect width="280" height="46" fill="white"/>
        </clipPath>
    </defs>
</svg>
